<?xml version="1.0" encoding="utf-8"?>
<!-- Generator: Adobe Illustrator 27.5.0, SVG Export Plug-In . SVG Version: 6.00 Build 0)  -->
<svg version="1.1" id="Layer_1" xmlns="http://www.w3.org/2000/svg" xmlns:xlink="http://www.w3.org/1999/xlink" x="0px" y="0px"
	 viewBox="0 0 800 800" style="enable-background:new 0 0 800 800;" xml:space="preserve">
<style type="text/css">
	.st0{fill:#FFFFFF;}
	.st1{fill:none;}
</style>
<g>
	<path class="st0" d="M345.6,342.8c0,10.3-3.3,17.6-10,21.7c-6.8,4.3-15.4,6.3-26.2,6.1h-60v-54.5h53.7c11.9,0,21.5,1.4,29.2,3.9
		C341.2,323.7,345.6,331.2,345.6,342.8z"/>
	<path class="st0" d="M350.6,442.3c0,15.2-5.3,25.3-16.2,30.8c-5.9,3-14.2,4.4-25,4.4h-60.2v-65.9h60.9c10.6,0.1,18.8,1.5,24.7,4.2
		C345.3,420.6,350.6,429.5,350.6,442.3z"/>
	<path class="st0" d="M0,0v800h800V0H0z M455.6,284.8h105.9v30.8H455.6V284.8z M391.7,485.3c-4.7,7.7-10.5,14.2-17.5,19.4
		c-7.8,6.1-17.2,10.2-28,12.5c-10.8,2.2-22.3,3.3-35,3.3H200V273.3h119.5c30.2,0.5,51.6,9.2,64.1,26.4c7.5,10.5,11.2,23.1,11.2,37.8
		c0,15-3.8,27.2-11.4,36.4c-4.2,5.2-10.6,9.8-18.9,14.1c12.7,4.7,22.2,11.9,28.6,21.9c6.4,10,9.7,22,9.7,36.3
		S399.1,473.6,391.7,485.3z M600,442.5H466.9c0.8,18.3,7,31.2,19.1,38.6c7.3,4.5,16.1,6.9,26.4,6.9c10.8,0,19.7-2.8,26.6-8.4
		c3.8-3,7-7.2,9.8-12.7h48.8c-1.2,10.8-7.2,21.9-17.7,33.1c-16.4,17.8-39.2,26.7-68.8,26.7c-24.4,0-45.8-7.5-64.4-22.5
		c-18.6-15-28-39.4-28-73.1c0-31.7,8.4-55.9,25.2-72.8c16.9-16.9,38.6-25.3,65.3-25.3c15.9,0,30.3,2.8,43,8.6
		c12.8,5.6,23.3,14.7,31.6,27c7.5,10.8,12.3,23.4,14.5,37.8C599.7,414.7,600.2,426.7,600,442.5z M537.7,382
		c-7.7-6.6-17.2-9.8-28.4-9.8c-12.2,0-21.7,3.4-28.6,10.5c-6.7,7-10.9,16.4-12.8,28.3h82.3C549.5,398.3,545.2,388.8,537.7,382z"/>
	<path class="st1" d="M350.6,442.3c0,15.2-5.3,25.3-16.2,30.8c-5.9,3-14.2,4.4-25,4.4h-60.2v-65.9h60.9c10.6,0.1,18.8,1.5,24.7,4.2
		C345.3,420.6,350.6,429.5,350.6,442.3z"/>
	<path class="st1" d="M550.2,411h-82.3c1.9-11.9,6.1-21.3,12.8-28.3c6.9-7.1,16.4-10.5,28.6-10.5c11.2,0,20.7,3.2,28.4,9.8
		C545.2,388.8,549.5,398.3,550.2,411z"/>
	<path class="st1" d="M345.6,342.8c0,10.3-3.3,17.6-10,21.7c-6.8,4.3-15.4,6.3-26.2,6.1h-60v-54.5h53.7c11.9,0,21.5,1.4,29.2,3.9
		C341.2,323.7,345.6,331.2,345.6,342.8z"/>
	<path class="st1" d="M0,0v800h800V0H0z M455.6,284.8h105.9v30.8H455.6V284.8z M391.7,485.3c-4.7,7.7-10.5,14.2-17.5,19.4
		c-7.8,6.1-17.2,10.2-28,12.5c-10.8,2.2-22.3,3.3-35,3.3H200V273.3h119.5c30.2,0.5,51.6,9.2,64.1,26.4c7.5,10.5,11.2,23.1,11.2,37.8
		c0,15-3.8,27.2-11.4,36.4c-4.2,5.2-10.6,9.8-18.9,14.1c12.7,4.7,22.2,11.9,28.6,21.9c6.4,10,9.7,22,9.7,36.3
		S399.1,473.6,391.7,485.3z M600,442.5H466.9c0.8,18.3,7,31.2,19.1,38.6c7.3,4.5,16.1,6.9,26.4,6.9c10.8,0,19.7-2.8,26.6-8.4
		c3.8-3,7-7.2,9.8-12.7h48.8c-1.2,10.8-7.2,21.9-17.7,33.1c-16.4,17.8-39.2,26.7-68.8,26.7c-24.4,0-45.8-7.5-64.4-22.5
		c-18.6-15-28-39.4-28-73.1c0-31.7,8.4-55.9,25.2-72.8c16.9-16.9,38.6-25.3,65.3-25.3c15.9,0,30.3,2.8,43,8.6
		c12.8,5.6,23.3,14.7,31.6,27c7.5,10.8,12.3,23.4,14.5,37.8C599.7,414.7,600.2,426.7,600,442.5z"/>
</g>
</svg>
